# xmcd CD database file
#
# Track frame offsets:
#	150
#	29415
#	43632
#	57598
#	90468
#	115328
#	127946
#	142703
#	161381
#	174683
#	203947
#	221148
#	241290
#	268979
#	287662
#	303995
#	332074
#
# Disc length: 4757 seconds
#
# Revision: 0
# Processed by: cddbd v1.5.2PL0 Copyright (c) Steve Scherf et al.
# Submitted via: CDex 1.51
#
DISCID=fa129311
DTITLE=Al Cohn - Mr Music and Al And Zoot
DYEAR=1954
DGENRE=Jazz
TTITLE0=Something For Lisa
TTITLE1=Count Every Star
TTITLE2=Cabin In The Sky
TTITLE3=Move
TTITLE4=Never Never Land
TTITLE5=La Ronde
TTITLE6=This Reminds Me Of You
TTITLE7=Breakfast With Joe
TTITLE8=Cohn My Way
TTITLE9=It's A Wonderful World
TTITLE10=Brandy And Beer
TTITLE11=Two Funky People
TTITLE12=Chasing The Blues
TTITLE13=Halley's Comet
TTITLE14=You're a Lucky Guy
TTITLE15=The Wailing Boat
TTITLE16=Just You, Just Me
EXTD=YEAR: 1954
EXTT0=
EXTT1=
EXTT2=
EXTT3=
EXTT4=
EXTT5=
EXTT6=
EXTT7=
EXTT8=
EXTT9=
EXTT10=
EXTT11=
EXTT12=
EXTT13=
EXTT14=
EXTT15=
EXTT16=
PLAYORDER=
